<?xml version="1.0" encoding="UTF-8"?>
<svg width="60px" height="60px" viewBox="0 0 60 60" version="1.1" xmlns="http://www.w3.org/2000/svg" xmlns:xlink="http://www.w3.org/1999/xlink">
    <title>画板</title>
    <g id="画板" stroke="none" stroke-width="1" fill="none" fill-rule="evenodd">
        <path d="M35.84375,52 C34.775,52 33.70625,51.284852 33.35,49.8545561 L26.225,20.5334895 L19.1,41.2727805 C18.74375,41.9879285 18.03125,42.7030764 17.31875,43.0606504 C16.60625,43.4182244 15.5375,43.0606504 14.825,42.3455025 L5.20625,32.6910049 L4.49375,32.6910049 C3.06875,32.6910049 2,31.260709 2,29.830413 C2,28.4001171 3.06875,27.3273952 4.49375,27.3273952 L6.275,27.3273952 C6.9875,27.3273952 7.7,27.6849691 8.05625,28.0425431 L15.5375,35.9091708 L24.0875,10.8789919 C24.8,9.44869599 25.5125,8.73354802 26.9375,9.09112201 C28.00625,9.09112201 29.075,9.80626997 29.43125,11.2365659 L36.2,39.4849106 L40.83125,22.3213594 C41.1875,21.2486374 41.9,20.5334895 42.6125,20.5334895 C43.68125,20.1759155 44.39375,20.5334895 45.10625,21.2486374 L51.51875,28.0425431 L56.50625,28.0425431 C57.93125,28.0425431 59,29.1152651 59,30.545561 C59,31.9758569 57.93125,33.0485789 56.50625,33.0485789 L50.45,33.0485789 C49.7375,33.0485789 49.025,32.6910049 48.66875,32.3334309 L44.75,28.4001171 L38.69375,50.9272781 C38.3375,51.284852 37.26875,52 35.84375,52 Z" id="路径" fill="#FFFFFF"></path>
    </g>
</svg>