<?xml version="1.0" encoding="UTF-8"?>
<svg width="60px" height="60px" viewBox="0 0 60 60" version="1.1" xmlns="http://www.w3.org/2000/svg" xmlns:xlink="http://www.w3.org/1999/xlink">
    <title>画板备份 4</title>
    <g id="画板备份-4" stroke="none" stroke-width="1" fill="none" fill-rule="evenodd">
        <g id="车" transform="translate(5.000000, 9.000000)" fill="#FFFFFF">
            <path d="M45.868,18.1442449 C45.4725,15.7116735 44.174,8.27004083 42.774,5.45485716 C41.8395,3.58040819 39.442,2.14824493 35.648,1.19697961 C32.568,0.424734697 28.6305,0 24.56,0 C20.4895,0 16.552,0.421224503 13.472,1.19697961 C9.67799999,2.15175513 7.2805,3.58391838 6.34599998,5.45485716 C4.94599999,8.26653064 3.65099997,15.7116735 3.25199998,18.1442449 C1.10999999,19.6150204 0.06,21.7422041 0.06,24.5714286 L0.06,32.2482449 C0.06,34.2525714 1.34099998,35.9585306 3.1225,36.5938776 L3.1225,39.9285714 C3.1225,41.6204898 4.49800002,43 6.18500001,43 L9.24750001,43 C10.9380725,42.9980656 12.3080712,41.6240727 12.31,39.9285714 L12.31,36.8571429 L36.81,36.8571429 L36.81,39.9285714 C36.81,41.6204898 38.1855,43 39.8725,43 L42.935,43 C44.6255725,42.9980656 45.9955712,41.6240727 45.9975,39.9285714 L45.9975,36.5938776 C47.7825,35.9620408 49.06,34.2525714 49.06,32.2482449 L49.06,24.5714286 C49.06,21.7422041 48.01,19.6150204 45.868,18.1442449 L45.868,18.1442449 Z M8.52931407,6.88848547 C9.44608643,5.00414936 15.1996234,3 24.0617562,3 C32.9238891,3 38.6809386,5.00051866 39.5906859,6.88848547 C40.4758455,8.71473028 41.452331,13.5471991 42.06,17 C41.7523032,16.9055013 41.4418841,16.8207453 41.1291775,16.7458506 C40.2533194,16.5376049 39.3683175,16.3728243 38.4772114,16.2520747 L29.565903,9.65145229 C28.875287,9.16226867 27.9330118,9.3336946 27.4454871,10.0372146 C26.9579624,10.7407346 27.1041737,11.7180644 27.7745087,12.2365145 L32.5866855,15.7982365 C29.9768699,15.7110996 27.1106391,15.7110996 24.0617562,15.7110996 L22.9904322,15.7110996 L14.1528871,9.62240664 C13.6961002,9.30785354 13.1116615,9.2690856 12.6197231,9.52070633 C12.1277848,9.77232706 11.8030842,10.2761093 11.7679327,10.8422831 C11.7327813,11.4084569 11.9925194,11.9510071 12.4493062,12.2655602 L17.5038482,15.7510373 C13.3801288,15.8236514 9.79734025,16.0560166 6.99082251,16.7458506 C6.67883656,16.8237212 6.3684919,16.9084569 6.06,17 C6.66766904,13.5471992 7.64766708,8.71473028 8.5328266,6.88848547 L8.52931407,6.88848547 Z M9.06,40 L6.06,40 L6.06,37 L9.06,37 L9.06,40 Z M40.06,40 L40.06,37 L43.06,37 L43.06,40 L40.06,40 Z M40.9070204,19.8950617 C44.5681633,20.7455418 46.06,22.2270233 46.06,24.9979424 L46.06,32.5013717 C46.0580698,33.3282589 45.3724223,33.9981143 44.5260408,34 L4.59395919,34 C3.74757772,33.9981143 3.06193018,33.3282589 3.06,32.5013717 L3.06,24.9979424 C3.06,22.2270233 4.55183673,20.7455418 8.2129796,19.8950617 C11.5546939,19.1165981 16.3496327,19.0137174 21.9308572,19 L27.1891428,19 C32.7703673,19.0137174 37.5617959,19.1165981 40.9070204,19.8916324 L40.9070204,19.8950617 Z M10.5617143,22 C8.07942857,22 6.06,24.0194286 6.06,26.4982857 C6.06,28.9805714 8.07942857,31 10.5617143,31 C13.0405714,31 15.06,28.9805714 15.06,26.4982857 C15.06,24.0194286 13.0405714,22 10.5617143,22 Z M38.5617143,22 C36.0794286,22 34.06,24.0194286 34.06,26.4982857 C34.06,28.9805714 36.0794286,31 38.5617143,31 C41.0405714,31 43.06,28.9805714 43.06,26.4982857 C43.06,24.0194286 41.0405714,22 38.5617143,22 Z M10.4883478,25.001719 C11.0407242,24.9753029 11.5628302,25.2549557 11.8469272,25.7294074 C12.1310243,26.203859 12.1310243,26.796141 11.8469272,27.2705926 C11.5628302,27.7450443 11.0407242,28.0246971 10.4883478,27.998281 C9.68869062,27.9600394 9.06,27.3005675 9.06,26.5 C9.06,25.6994325 9.68869062,25.0399606 10.4883478,25.001719 L10.4883478,25.001719 Z M38.4883478,25.001719 C39.0407242,24.9753029 39.5628302,25.2549557 39.8469272,25.7294074 C40.1310243,26.203859 40.1310243,26.796141 39.8469272,27.2705926 C39.5628302,27.7450443 39.0407242,28.0246971 38.4883478,27.998281 C37.6886906,27.9600394 37.06,27.3005675 37.06,26.5 C37.06,25.6994325 37.6886906,25.0399606 38.4883478,25.001719 L38.4883478,25.001719 Z" id="形状"></path>
        </g>
    </g>
</svg>