<?xml version="1.0" encoding="UTF-8"?>
<svg width="60px" height="60px" viewBox="0 0 60 60" version="1.1" xmlns="http://www.w3.org/2000/svg" xmlns:xlink="http://www.w3.org/1999/xlink">
    <title>画板备份 5</title>
    <g id="画板备份-5" stroke="none" stroke-width="1" fill="none" fill-rule="evenodd">
        <g id="轨迹" transform="translate(10.000000, 6.000000)" fill="#FFFFFF">
            <path d="M21.9782541,23.31 C18.4804532,23.31 15.289029,20.16 15.289029,16.38 C15.289029,12.6 18.1485451,9.45 21.9782541,9.45 C25.5015864,9.45 28.6930106,12.2976 28.6930106,16.38 C28.6930106,20.16 25.8079631,23.31 21.9782541,23.31 L21.9782541,23.31 Z M21.9782541,11.97 C19.7570229,11.97 17.8421684,14.1624 17.8421684,16.38 C17.8932311,18.6228 19.7059601,20.4372 22.0037855,20.4876 C24.2250167,20.4876 26.1654026,18.5976 26.1654026,16.0776 C26.1654026,13.5576 24.2250167,11.97 21.9782541,11.97 Z M18.7868299,36.2124 C15.5954057,32.76 12.7358897,29.61 10.8210352,26.46 C7.9359877,22.68 6.35304131,18.9 6.0211332,15.4476 C5.38284836,8.5176 11.1274119,1.5876 18.7868299,0.3276 C19.7570229,1.04449782e-12 20.3953077,1.04449782e-12 21.3399693,1.04449782e-12 C25.8079631,1.04449782e-12 29.9440489,1.5876 32.8290963,4.41 C35.7141438,7.2576 37.3226216,11.1132 37.2973895,15.12 C37.2973895,19.53 35.0758589,23.31 32.8290963,26.1576 C30.275957,29.9376 27.3909095,33.0876 24.5313934,35.91 C23.5612005,36.8676 22.6165389,37.4976 21.3399693,37.4976 C20.3953077,37.4724 19.4251148,36.8424 18.7868299,36.2124 Z M19.4251148,3.15 C13.986928,4.41 8.57427254,9.45 8.88064926,15.4476 C9.21255738,18.27 10.489127,21.42 13.0422664,24.8976 C15.2634976,28.0476 17.5102602,30.8952 20.7016844,34.0452 C21.0080611,34.3476 21.3399693,34.3476 21.3399693,34.3476 C21.6718774,34.3476 22.3101622,34.0452 22.6165389,33.7176 C25.1696783,30.8952 28.0547257,28.0476 30.275957,24.5952 C31.8844348,22.0752 34.105666,18.5976 34.105666,15.1452 C34.4375741,11.97 33.1610044,8.82 30.6078651,6.6024 C28.3866339,4.41 24.8633016,3.15 21.6718774,3.15 L19.4251148,3.15 L19.4251148,3.15 Z M35.4375741,38.95 C37.0205205,38.95 39.905568,39.58 39.5736598,43.36 C39.5736598,47.4676 36.7141438,48.4 35.105666,48.4 L15.9571209,48.4 C15.6507442,48.4 15.3188361,47.77 15.3188361,47.14 C15.3188361,46.51 15.9571209,45.88 16.2634976,45.88 L35.4120427,45.88 C36.0503275,45.88 37.0205205,45.25 37.0205205,43.99 C37.3268972,42.4024 36.0503275,42.1 35.4120427,42.1 L4.16161713,42.1 C1.60847779,42.1 5.82289772e-12,39.58 5.82289772e-12,37.06 C5.82289772e-12,34.2376 2.55313934,32.3224 5.10627869,32.3224 L11.489127,32.3224 C12.1274119,32.3224 12.7656967,32.9524 12.7656967,33.5824 C12.7656967,34.2124 12.1274119,34.8424 11.489127,34.8424 L5.10627869,34.8424 C4.13608574,34.8424 3.19142418,35.8 3.19142418,37.06 C3.19142418,38.6476 4.13608574,38.95 5.10627869,38.95 L35.4375741,38.95 L35.4375741,38.95 Z" id="形状"></path>
        </g>
    </g>
</svg>