<?xml version="1.0" encoding="UTF-8"?>
<svg width="60px" height="60px" viewBox="0 0 60 60" version="1.1" xmlns="http://www.w3.org/2000/svg" xmlns:xlink="http://www.w3.org/1999/xlink">
    <title>画板备份 6</title>
    <g id="画板备份-6" stroke="none" stroke-width="1" fill="none" fill-rule="evenodd">
        <g id="机器人-(2)" transform="translate(8.000000, 8.000000)" fill="#FFFFFF">
            <path d="M37.2,5.878125 L8.325,5.878125 C6.8484375,5.878125 5.653125,7.0734375 5.653125,8.55 L5.653125,28.0453125 C5.653125,29.521875 6.8484375,30.7171875 8.325,30.7171875 L37.1953125,30.7171875 C38.671875,30.7171875 39.8672012,29.521875 39.8672012,28.0453125 L39.8672012,8.55 C39.871875,7.0734375 38.6765625,5.878125 37.2,5.878125 Z M36.590625,26.428125 C36.590625,26.9859375 36.1359375,27.440625 35.578125,27.440625 L9.946875,27.440625 C9.3890625,27.440625 8.934375,26.9859375 8.934375,26.428125 L8.934375,10.171875 C8.934375,9.6140625 9.3890625,9.159375 9.946875,9.159375 L35.578125,9.159375 C36.1359375,9.159375 36.590625,9.6140625 36.590625,10.171875 L36.590625,26.428125 Z" id="形状"></path>
            <path d="M26.128125,0.0421875 L18.9609375,0.0421875 C17.878125,0.0421875 17.0015625,0.91875 17.0015625,2.0015625 L17.0015625,7.9640625 L28.0921875,7.9640625 L28.0921875,2.0015625 C28.0875,0.91875 27.2109375,0.0421875 26.128125,0.0421875 Z M24.8859375,6.58125 L20.1984375,6.58125 L20.1984375,3.88125 C20.1984375,3.5578125 20.4609375,3.3 20.7796875,3.3 L24.3,3.3 C24.6234375,3.3 24.88125,3.5625 24.88125,3.88125 L24.88125,6.58125 L24.8859375,6.58125 Z M14.23125,16.7953125 C14.23125,18.322725 15.4694625,19.5609375 16.996875,19.5609375 C18.5242875,19.5609375 19.7625,18.322725 19.7625,16.7953125 C19.7625,15.2679 18.5242875,14.0296875 16.996875,14.0296875 C15.4694625,14.0296875 14.23125,15.2679 14.23125,16.7953125 Z M25.340625,16.7953125 C25.340625,18.322725 26.5788375,19.5609375 28.10625,19.5609375 C29.6336625,19.5609375 30.871875,18.322725 30.871875,16.7953125 C30.871875,15.2679 29.6336625,14.0296875 28.10625,14.0296875 C26.5788375,14.0296875 25.340625,15.2679 25.340625,16.7953125 Z M1.65,22.44375 C0.7453125,22.44375 0.009375,21.7078125 0.009375,20.803125 L0.009375,15.646875 C0.009375,14.7421875 0.7453125,14.00625 1.65,14.00625 C2.55,14.00625 3.290625,14.7421875 3.290625,15.646875 L3.290625,20.803125 C3.290625,21.703125 2.55,22.44375 1.65,22.44375 Z M43.35,22.51875 C42.4453125,22.51875 41.709375,21.7828125 41.709375,20.878125 L41.709375,15.721875 C41.709375,14.8171875 42.45,14.08125 43.35,14.08125 C44.25,14.08125 44.990625,14.8171875 44.990625,15.721875 L44.990625,20.878125 C44.990625,21.778125 44.2546875,22.51875 43.35,22.51875 Z M26.034375,27.6046875 L18.8671875,27.6046875 C17.784375,27.6046875 16.9078125,28.48125 16.9078125,29.5640625 L16.9078125,35.5265625 L27.9984375,35.5265625 L27.9984375,29.5640625 C27.99375,28.48125 27.1171875,27.6046875 26.034375,27.6046875 L26.034375,27.6046875 Z M24.7921875,34.14375 L20.1046875,34.14375 L20.1046875,30.0375 C20.1046875,29.7140625 20.3671875,29.45625 20.6859375,29.45625 L24.20625,29.45625 C24.5296875,29.45625 24.7875,29.71875 24.7875,30.0375 L24.7875,34.14375 L24.7921875,34.14375 Z" id="形状"></path>
            <path d="M36.58125,33.4265625 L8.503125,33.4265625 C7.0734375,33.4265625 5.9015625,34.5984375 5.9015625,36.028125 L5.9015625,42.075 C5.9015625,43.5046875 7.0734375,44.6765625 8.503125,44.6765625 L36.58125,44.6765625 C38.0109375,44.6765625 39.1828125,43.5046875 39.1828125,42.075 L39.1828125,36.028125 C39.1828125,34.5984375 38.0109375,33.4265625 36.58125,33.4265625 Z M35.9015625,40.2890625 C35.9015625,40.8984375 35.4046875,41.3953125 34.7953125,41.3953125 L10.2890625,41.3953125 C9.6796875,41.3953125 9.1828125,40.8984375 9.1828125,40.2890625 L9.1828125,37.8140625 C9.1828125,37.2046875 9.6796875,36.7078125 10.2890625,36.7078125 L34.7953125,36.7078125 C35.4046875,36.7078125 35.9015625,37.2046875 35.9015625,37.8140625 L35.9015625,40.2890625 Z" id="形状"></path>
        </g>
    </g>
</svg>