<?xml version="1.0" encoding="UTF-8"?>
<svg width="60px" height="60px" viewBox="0 0 60 60" version="1.1" xmlns="http://www.w3.org/2000/svg" xmlns:xlink="http://www.w3.org/1999/xlink">
    <title>画板备份 7</title>
    <g id="画板备份-7" stroke="none" stroke-width="1" fill="none" fill-rule="evenodd">
        <g id="城市" transform="translate(9.000000, 9.000000)" fill="#FFFFFF">
            <path d="M42.4191304,39.4224246 L40.363785,27.1389038 C40.1174514,25.6572041 38.8318983,24.5747188 37.3231054,24.5747188 L30.6105165,24.5747188 L32.6119765,22.056597 C32.6966536,21.941439 32.7659349,21.8186038 32.8429142,21.6957686 C34.3978946,19.4617033 35.3139475,16.7439743 35.3139475,13.8189609 C35.3139475,6.18782358 29.1094215,0 21.4576859,0 C13.8059504,0 7.60142444,6.18782358 7.60142444,13.8189609 C7.60142444,16.7439743 8.51747728,19.4540261 10.0724577,21.6880914 C10.141739,21.8186038 10.2187183,21.941439 10.3033954,22.056597 L12.3048554,24.5747188 L5.59996439,24.5747188 C4.09117148,24.5747188 2.81331626,25.6572041 2.55928477,27.1389038 L0.503939326,39.4224246 C0.196022396,41.2956615 1.64323192,43 3.54461895,43 L39.3861488,43 C41.2875357,43 42.7347453,41.2956615 42.4191304,39.4224246 Z M10.6882916,13.8266382 C10.6882916,7.89983936 15.5225872,3.07855745 21.4653839,3.07855745 C27.4081805,3.07855745 32.2424761,7.89983936 32.2424761,13.8266382 C32.2424761,16.0223175 31.5804547,18.1412249 30.3179954,19.9530442 L30.2410161,20.0682022 L30.1717349,20.1833602 L30.1409432,20.2371005 L26.6845757,24.5747188 L24.2366361,27.645599 L21.4576859,31.131048 L18.6864336,27.6455991 L16.2384941,24.5747189 L12.7898245,20.2447778 L12.743637,20.1680058 L12.6743557,20.0528478 L12.5973765,19.945367 C11.3503129,18.1412248 10.6882916,16.0223175 10.6882916,13.8266382 Z M3.54461895,39.9291199 L5.59996439,27.6455991 L14.7604928,27.6455991 L19.7564449,33.9178719 C20.2337162,34.5243707 20.84955,34.8314587 21.4730818,34.8314587 C22.0966136,34.8314587 22.7124474,34.5243707 23.1897187,33.9178719 L28.1856707,27.6455991 L37.3461992,27.6455991 L39.4015446,39.9291199 L3.54461895,39.9291199 Z" id="形状"></path>
            <path d="M20.9625,19 C24.0027778,19 26.4625,16.5402778 26.4625,13.5 C26.4625,10.4597222 24.0027778,8 20.9625,8 C17.9222222,8 15.4625,10.4597222 15.4625,13.5 C15.4625,16.5402778 17.9222222,19 20.9625,19 Z M20.9625,11.0555556 C22.3069444,11.0555556 23.4069445,12.1555556 23.4069445,13.5 C23.4069445,14.8444445 22.3069445,15.9444445 20.9625,15.9444445 C19.6180556,15.9444445 18.5180555,14.8444445 18.5180555,13.5 C18.5180555,12.1555556 19.6180556,11.0555556 20.9625,11.0555556 Z" id="形状"></path>
        </g>
    </g>
</svg>