<?xml version="1.0" encoding="UTF-8"?>
<svg width="76px" height="76px" viewBox="0 0 76 76" version="1.1" xmlns="http://www.w3.org/2000/svg" xmlns:xlink="http://www.w3.org/1999/xlink">
    <title>insurance</title>
    <g id="页面-1" stroke="none" stroke-width="1" fill="none" fill-rule="evenodd">
        <g id="insurance">
            <path d="M16.6712811,0 L58.3494838,0 C67.5567782,-1.69135253e-15 75.0207649,7.46398679 75.0207649,16.6712811 L75.0207649,58.6294102 C75.0207649,67.8367046 67.5567782,75.3006913 58.3494838,75.3006913 L16.6712811,75.3006913 C7.46398679,75.3006913 1.12756835e-15,67.8367046 0,58.6294102 L0,16.6712811 C-1.12756835e-15,7.46398679 7.46398679,1.69135253e-15 16.6712811,0 Z" id="bg" fill="#FFBE00" opacity="0.150000006"></path>
            <g id="智慧城市" transform="translate(18.000000, 16.000000)" fill="#FFA300">
                <path d="M19.496875,0.00936430664 C24.4496147,0.00936430664 28.4646832,9.41073418 28.4646832,21.0086793 C28.4646832,32.6059396 24.4496147,42.0073095 19.496875,42.0073095 C14.5434503,42.0073095 10.5283818,32.6059396 10.5283818,21.0086793 C10.5283818,9.41073418 14.5434503,0.00936430664 19.496875,0.00936430664 Z M19.496875,2.06415884 C16.1564641,2.06415884 12.5831764,10.4305972 12.5831764,21.0086793 C12.5831764,31.5860766 16.1564641,39.952515 19.496875,39.952515 C22.836601,39.952515 26.4098887,31.5860766 26.4098887,21.0086793 L26.4057791,20.3703232 C26.2660531,10.0963506 22.7694777,2.06415884 19.496875,2.06415884 Z" id="形状"></path>
                <path d="M14.8338613,13.8607342 C25.2776969,7.6915561 35.8311215,6.39018623 38.4064641,10.9531999 C40.9818065,15.5168985 34.6030394,24.2175834 24.1598887,30.3867616 C13.7160531,36.5552547 3.16194351,37.8573095 0.587285938,33.2936109 C-1.98805654,28.7299123 4.3907106,20.0299123 14.8338613,13.8607342 Z M36.616738,11.9634739 C34.8455052,8.82443276 25.4359161,9.98470674 15.8790668,15.6299123 C6.29961475,21.2888164 0.577012012,29.0942958 2.37632705,32.2840218 C4.14755991,35.4230629 13.5578339,34.262104 23.1139983,28.6175835 C32.6941353,22.9586794 38.416738,15.152515 36.616738,11.9634739 Z" id="形状"></path>
                <path d="M0.587285938,10.9531999 C3.16262842,6.39018618 13.7160531,7.69155605 24.1592038,13.8607342 L24.7811216,14.2340218 C34.8544093,20.3758026 40.9297517,28.8216931 38.4064641,33.2936109 C35.8311216,37.8573095 25.2776969,36.5552547 14.8338613,30.3867616 C4.3907106,24.2175835 -1.98805654,15.5168985 0.587285938,10.9531999 Z M23.1146832,15.6299123 L22.5352312,15.2929259 C13.1804366,9.93950127 4.11194346,8.88744648 2.37632705,11.9634739 C0.577011963,15.152515 6.29961475,22.9586793 15.8790668,28.6175835 C25.4359161,34.2621041 34.8448202,35.4230629 36.616738,32.2840218 C38.416738,29.0942958 32.6941353,21.2888164 23.1139983,15.6299123 L23.1146832,15.6299123 Z" id="形状"></path>
                <path d="M19.8393408,18.8449807 C18.7381797,18.8449807 17.7206649,19.4324431 17.1700843,20.3860766 C16.6195037,21.3397101 16.6195037,22.514635 17.1700843,23.4682684 C17.7206649,24.4219019 18.7381797,25.0093643 19.8393408,25.0093643 C21.5415883,25.0093643 22.9215325,23.62942 22.9215325,21.9271725 C22.9215325,20.224925 21.5415883,18.8449807 19.8393408,18.8449807 L19.8393408,18.8449807 Z M19.8393408,20.8997752 C20.2063945,20.8997752 20.5455661,21.095596 20.729093,21.4134739 C20.9126198,21.7313517 20.9126198,22.1229933 20.729093,22.4408712 C20.5455661,22.758749 20.2063945,22.9545698 19.8393408,22.9545698 C19.2719249,22.9545698 18.8119435,22.4945884 18.8119435,21.9271725 C18.8119435,21.3597567 19.2719249,20.8997752 19.8393408,20.8997752 L19.8393408,20.8997752 Z" id="形状"></path>
            </g>
        </g>
    </g>
</svg>