<?xml version="1.0" encoding="UTF-8"?>
<svg width="76px" height="77px" viewBox="0 0 76 77" version="1.1" xmlns="http://www.w3.org/2000/svg" xmlns:xlink="http://www.w3.org/1999/xlink">
    <title>package</title>
    <g id="页面-1" stroke="none" stroke-width="1" fill="none" fill-rule="evenodd">
        <g id="package" fill="#687EEE">
            <path d="M16.6712811,0 L59.256979,0 C68.4642733,-1.69135253e-15 75.9282601,7.46398679 75.9282601,16.6712811 L75.9282601,59.5402896 C75.9282601,68.7475839 68.4642733,76.2115707 59.256979,76.2115707 L16.6712811,76.2115707 C7.46398679,76.2115707 8.23299571e-15,68.7475839 0,59.5402896 L0,16.6712811 C-1.12756835e-15,7.46398679 7.46398679,1.69135253e-15 16.6712811,0 Z" id="bg" opacity="0.150000006"></path>
            <g id="社会信息" transform="translate(17.606506, 17.894215)">
                <path d="M6.63684211,34.0694737 C6.26889945,34.0661849 5.9580938,33.7955696 5.90421051,33.4315789 C5.70870547,32.0467622 5.60881996,30.6501235 5.60526316,29.2515789 C5.65444692,16.6082195 13.9893084,5.49335961 26.1126316,1.90421051 C26.5065996,1.80034371 26.9111696,2.03116518 27.0222272,2.42316687 C27.1332848,2.81516856 26.9099041,3.22389409 26.52,3.34210527 C15.0203292,6.74845928 7.11925586,17.298059 7.08526316,29.2915789 C7.08947367,30.6178947 7.18842105,31.9431579 7.38421051,33.2547368 C7.44039517,33.6633736 7.15489859,34.0402667 6.74631578,34.0968421 C6.71113755,34.0829983 6.67202034,34.0829983 6.63684211,34.0968421 L6.63684211,34.0694737 L6.63684211,34.0694737 Z M26.4789474,14.1589474 C26.4746419,15.1435179 26.9910487,16.0570376 27.8368421,16.5610526 C28.7,17.0505263 29.7557895,17.0505263 30.6189474,16.5610526 C31.4793176,16.063966 32.0092616,15.1457511 32.0092616,14.1521053 C32.0092616,13.1584594 31.4793176,12.2402445 30.6189474,11.7431579 C29.7559516,11.254498 28.6998379,11.254498 27.8368421,11.7431579 C26.9888767,12.2516556 26.4725573,13.1702238 26.4789474,14.1589474 L26.4789474,14.1589474 Z" id="形状"></path>
                <path d="M36.5094737,29.1431579 C36.4246356,29.1628419 36.3364171,29.1628419 36.2515789,29.1431579 C25.067148,24.9715824 17.6530576,14.2886437 17.6578924,2.35157895 L17.6578924,1.45684211 C17.6645006,1.25727772 17.7522739,1.06905545 17.9009074,0.935722497 C18.0495409,0.802389545 18.2461558,0.735498867 18.4452632,0.750526328 C18.6436131,0.757169781 18.8303943,0.845508962 18.9613639,0.994618947 C19.0923335,1.14372893 19.1558405,1.34034503 19.1368421,1.53789473 L19.1368421,2.35157895 C19.1674257,13.6513003 26.1950252,23.7501466 36.78,27.7052632 C37.1663229,27.8511687 37.3654444,28.2788593 37.2284211,28.6684211 C37.1013765,28.9469098 36.8289577,29.1306908 36.5231579,29.1442105 L36.5094737,29.1442105 L36.5094737,29.1431579 Z" id="路径"></path>
                <path d="M25.8821053,28.26 C16.7636361,28.2675921 7.95252001,24.9643587 1.08631578,18.9642105 C0.798595151,18.6935928 0.775438668,18.2442373 1.03381777,17.9454777 C1.29219688,17.646718 1.74019516,17.6048357 2.04947367,17.8505263 C8.64684036,23.619044 17.1185107,26.7886708 25.8821053,26.7673684 C29.8094737,26.7757895 33.7115789,26.1389474 37.4315789,24.8810526 C37.6186044,24.8134014 37.8255002,24.8278619 38.0012966,24.9208717 C38.177093,25.0138814 38.3054466,25.1767935 38.3547368,25.3694737 C38.4227593,25.5546256 38.4101347,25.7598028 38.3199265,25.9352187 C38.2297183,26.1106347 38.0701713,26.2402566 37.88,26.2926316 C34.013358,27.592845 29.9615002,28.2576085 25.8821053,28.2610526 L25.8821053,28.26 Z" id="路径"></path>
                <path d="M20.0052632,39.9863198 C11.9182767,39.9914255 4.62474579,35.1238747 1.52644884,27.6539395 C-1.57184811,20.1840043 0.135427207,11.5831988 5.85198387,5.86302785 C11.5685405,0.142856917 20.1682653,-1.56985417 27.6401572,1.52372083 C35.1120492,4.61729582 39.9842105,11.9077488 39.9842105,19.9947368 C39.9757895,31.0273684 31.0378947,39.9715789 20.0052632,39.9863198 L20.0052632,39.9863198 Z M20.0052632,2.97578396 C13.1137193,2.97025496 6.89794023,7.11809259 4.25810333,13.4839914 C1.61826643,19.8498903 3.07463622,27.1792459 7.94769516,32.0523048 C12.8207541,36.9253638 20.1501097,38.3817336 26.5160086,35.7418967 C32.8819074,33.1020598 37.029745,26.8862807 37.024216,19.9947368 C37.0168421,10.5989473 29.4021052,2.98421051 20.0052632,2.97578396 Z" id="形状"></path>
                <path d="M9.71789473,11.7157895 C9.71791823,13.0142088 10.6373539,14.1308318 11.9116381,14.3800155 C13.1859223,14.6291991 14.4582536,13.9411716 14.947379,12.7384043 C15.4365043,11.535637 15.0054679,10.1549066 13.9189402,9.44402672 C12.8324124,8.73314682 11.3946228,8.89116487 10.4884211,9.82105262 C9.97750615,10.3448559 9.69967248,11.0527245 9.71789473,11.7842105 L9.71789473,11.7168421 L9.71789473,11.7157895 Z M17.3726275,27.5136842 C17.3709352,28.4968555 17.9009499,29.4041086 18.7582235,29.8854721 C19.615497,30.3668356 20.6660365,30.3470717 21.504598,29.8338045 C22.3431596,29.3205372 22.838675,28.3939908 22.8,27.4115789 C22.7418765,25.9351407 21.5136214,24.7763188 20.036301,24.8041117 C18.5589805,24.8319046 17.375181,26.0361046 17.3726275,27.5136842 L17.3726275,27.5136842 Z" id="形状"></path>
            </g>
        </g>
    </g>
</svg>