<?xml version="1.0" encoding="UTF-8"?>
<svg width="77px" height="77px" viewBox="0 0 77 77" version="1.1" xmlns="http://www.w3.org/2000/svg" xmlns:xlink="http://www.w3.org/1999/xlink">
    <title>price</title>
    <g id="页面-1" stroke="none" stroke-width="1" fill="none" fill-rule="evenodd">
        <g id="price">
            <path d="M16.6712811,0 L59.475758,0 C68.6830523,-1.69135253e-15 76.1470391,7.46398679 76.1470391,16.6712811 L76.1470391,59.5402896 C76.1470391,68.7475839 68.6830523,76.2115707 59.475758,76.2115707 L16.6712811,76.2115707 C7.46398679,76.2115707 1.28580021e-14,68.7475839 0,59.5402896 L0,16.6712811 C-1.12756835e-15,7.46398679 7.46398679,1.69135253e-15 16.6712811,0 Z" id="bg" fill="#FE6F45" opacity="0.150000006"></path>
            <g id="人工智能" transform="translate(18.420661, 18.894215)" fill="#FF4102" fill-rule="nonzero">
                <path d="M21.0940625,0.0359375 C11.5340625,0.0359375 3.7440625,7.8259375 3.7440625,17.3859375 C3.7440625,17.4559375 3.7540625,17.5259375 3.7640625,17.5959375 C2.5440625,18.8359375 0.0040625,21.6759375 0.0040625,23.6759375 C0.0040625,25.8859375 2.0940625,26.7359375 3.5840625,26.7859375 L5.2840625,27.1659375 L5.6040625,35.5159375 C5.6140625,37.2159375 7.0140625,38.6059375 8.7240625,38.6059375 L15.0940625,38.6059375 C15.7840625,38.6059375 16.3340625,38.0459375 16.3340625,37.3659375 C16.3340625,36.6859375 15.7740625,36.1259375 15.0940625,36.1259375 L8.7240625,36.1259375 C8.3840625,36.1259375 8.0940625,35.8459375 8.0940625,35.4959375 L7.7040625,25.1659375 L4.0140625,24.3459375 L3.8840625,24.3159375 L3.7440625,24.3159375 C3.6140625,24.3159375 3.2240625,24.2759375 2.8940625,24.1459375 C2.4940625,23.9859375 2.4940625,23.8359375 2.4940625,23.6959375 C2.4940625,22.9759375 4.0740625,20.8059375 5.8640625,19.0459375 C6.2040625,18.7059375 6.3140625,18.2159375 6.1740625,17.7859375 C6.2140625,17.6659375 6.2340625,17.5359375 6.2340625,17.4059375 C6.2440625,9.2059375 12.9040625,2.5359375 21.1040625,2.5359375 C29.2940625,2.5359375 35.9640625,9.2059375 35.9640625,17.3959375 C35.9640625,18.0859375 36.5240625,18.6359375 37.2040625,18.6359375 C37.8840625,18.6359375 38.4440625,18.0859375 38.4440625,17.3959375 C38.4440625,7.8259375 30.6640625,0.0359375 21.0940625,0.0359375 Z" id="路径"></path>
                <path d="M16.2340625,18.1059375 L15.3840625,20.3159375 C15.2640625,20.6259375 15.1040625,20.8759375 14.9040625,21.0559375 C14.6940625,21.2459375 14.3940625,21.3359375 13.9940625,21.3359375 C13.5940625,21.3359375 13.2740625,21.2259375 13.0440625,21.0059375 C12.8040625,20.7859375 12.7740625,20.4159375 12.9540625,19.8859375 L16.9240625,8.3159375 C16.9840625,8.1059375 17.1240625,7.9259375 17.3340625,7.7659375 C17.5440625,7.6059375 17.8340625,7.5259375 18.1940625,7.5259375 C18.5540625,7.5259375 18.8440625,7.6059375 19.0540625,7.7659375 C19.2640625,7.9259375 19.4040625,8.1059375 19.4640625,8.3159375 L23.4740625,19.9359375 C23.6240625,20.4259375 23.5840625,20.7759375 23.3440625,21.0059375 C23.1040625,21.2259375 22.7840625,21.3459375 22.3940625,21.3459375 C21.9940625,21.3559375 21.7040625,21.2759375 21.5040625,21.0859375 C21.3040625,20.8959375 21.1640625,20.6759375 21.0640625,20.4259375 L20.1440625,18.1159375 L16.2340625,18.1159375 L16.2340625,18.1059375 Z M19.6840625,15.9359375 L18.2040625,11.1559375 L16.7140625,15.9359375 L19.6840625,15.9359375 Z M27.4940625,20.1159375 C27.4940625,20.5259375 27.3940625,20.8359375 27.1940625,21.0359375 C26.9940625,21.2459375 26.6740625,21.3459375 26.2240625,21.3459375 C25.7740625,21.3459375 25.4540625,21.2459375 25.2740625,21.0359375 C25.0840625,20.8259375 24.9940625,20.5259375 24.9940625,20.1259375 L24.9940625,8.7659375 C24.9940625,7.9459375 25.4040625,7.5359375 26.2240625,7.5359375 C26.6340625,7.5359375 26.9540625,7.6259375 27.1640625,7.8059375 C27.3840625,7.9859375 27.4940625,8.2959375 27.4940625,8.7459375 L27.4940625,20.1159375 Z" id="形状"></path>
            </g>
        </g>
    </g>
</svg>