<?xml version="1.0" encoding="UTF-8"?>
<svg width="76px" height="77px" viewBox="0 0 76 77" version="1.1" xmlns="http://www.w3.org/2000/svg" xmlns:xlink="http://www.w3.org/1999/xlink">
    <title>service</title>
    <g id="页面-1" stroke="none" stroke-width="1" fill="none" fill-rule="evenodd">
        <g id="service" fill="#52AB42">
            <path d="M16.6712811,0 L59.256979,0 C68.4642733,-1.69135253e-15 75.9282601,7.46398679 75.9282601,16.6712811 L75.9282601,59.5402896 C75.9282601,68.7475839 68.4642733,76.2115707 59.256979,76.2115707 L16.6712811,76.2115707 C7.46398679,76.2115707 8.23299571e-15,68.7475839 0,59.5402896 L0,16.6712811 C-1.12756835e-15,7.46398679 7.46398679,1.69135253e-15 16.6712811,0 Z" id="bg" opacity="0.150000006"></path>
            <g id="政府" transform="translate(18.000000, 19.000000)">
                <path d="M39.2872612,15.7521466 C40.018646,15.7521466 40.6115556,15.159242 40.6115556,14.4278572 L40.6115556,9.92527318 C40.612984,9.40439413 40.3089388,8.93105105 39.8346341,8.71575553 L20.8531527,0.15201737 C20.5078231,-0.00321491463 20.1125649,-0.00321491463 19.7672354,0.15201737 L0.776925269,8.71575553 C0.302620643,8.93105105 -0.00142454201,9.40439413 3.78121331e-06,9.92527318 L3.78121331e-06,14.4278572 C3.78121331e-06,14.7790806 0.139531776,15.1159188 0.387884219,15.3642712 C0.636236661,15.6126236 0.973074857,15.7521466 1.32429825,15.7521466 L4.23773493,15.7521466 L4.23773493,29.1716126 L1.32429825,29.1716126 C0.592913397,29.1716126 3.78121331e-06,29.7645171 3.78121331e-06,30.495902 L3.78121331e-06,36.8524911 C3.78121331e-06,37.583876 0.592913397,38.1767805 1.32429825,38.1767805 L39.2872612,38.1767805 C40.018646,38.1767805 40.6115556,37.5838759 40.6115556,36.8524911 L40.6115556,30.495902 C40.6115556,29.7645171 40.018646,29.1716126 39.2872612,29.1716126 L36.3738245,29.1716126 L36.3738245,15.7521466 L39.2872612,15.7521466 Z M2.64858763,10.781647 L20.3057797,2.83591059 L37.9629718,10.781647 L37.9629718,13.1035678 L2.64858763,13.1035678 L2.64858763,10.781647 Z M21.6300691,29.1716126 L21.6300691,15.7521466 L26.397511,15.7521466 L26.397511,29.1716126 L21.6300691,29.1716126 Z M18.9814903,15.7521466 L18.9814903,29.1716126 L14.2140485,29.1716126 L14.2140485,15.7521466 L18.9814903,15.7521466 Z M6.88631374,15.7521466 L11.5654697,15.7521466 L11.5654697,29.1716126 L6.88631374,29.1716126 L6.88631374,15.7521466 Z M37.9629718,35.5282017 L2.64858763,35.5282017 L2.64858763,31.8201914 L37.9629718,31.8201914 L37.9629718,35.5282017 Z M33.7252457,29.1716126 L29.0460898,29.1716126 L29.0460898,15.7521466 L33.7252457,15.7521466 L33.7252457,29.1716126 Z" id="形状"></path>
            </g>
        </g>
    </g>
</svg>